<?xml version="1.0" standalone="no"?>
<!DOCTYPE svg PUBLIC "-//W3C//DTD SVG 20010904//EN"
 "http://www.w3.org/TR/2001/REC-SVG-20010904/DTD/svg10.dtd">
<svg version="1.0" xmlns="http://www.w3.org/2000/svg"
 width="300.000000pt" height="64.000000pt" viewBox="0 0 300.000000 64.000000"
 preserveAspectRatio="xMidYMid meet">
<metadata>
Created by potrace 1.10, written by Peter Selinger 2001-2011
</metadata>
<g transform="translate(0.000000,64.000000) scale(0.100000,-0.100000)"
fill="#000000" stroke="none">
<path d="M141 541 c-75 -13 -84 -42 -79 -240 3 -130 4 -133 30 -156 23 -20 42
-24 145 -30 131 -9 357 1 385 16 44 24 53 56 53 193 0 226 8 220 -280 223
-115 1 -230 -2 -254 -6z m417 -28 c40 -4 57 -12 68 -28 29 -44 28 -269 -1
-308 -19 -26 -195 -42 -361 -32 -116 7 -129 9 -151 31 -24 24 -24 28 -21 164
2 91 7 143 15 151 7 7 29 15 50 19 48 10 331 12 401 3z"/>
<path d="M292 437 c-19 -20 -22 -35 -22 -109 0 -72 3 -88 20 -103 24 -21 51
-16 120 25 28 17 55 30 59 30 5 0 16 12 26 26 15 23 15 27 0 50 -12 18 -158
104 -178 104 -2 0 -13 -10 -25 -23z m114 -53 c69 -38 83 -49 72 -59 -24 -23
-165 -95 -171 -88 -11 11 -8 193 3 193 6 0 49 -21 96 -46z"/>
<path d="M850 340 l0 -190 23 0 c23 0 23 0 20 122 -2 68 -5 140 -6 161 -1 20
1 37 5 37 5 0 8 -6 8 -12 0 -7 23 -79 51 -160 l51 -148 34 0 34 0 0 190 0 190
-26 0 -27 0 5 -162 6 -163 -57 163 -56 162 -32 0 -33 0 0 -190z"/>
<path d="M1150 340 l0 -190 90 0 c83 0 90 1 90 20 0 18 -7 20 -65 20 l-65 0 0
65 0 65 50 0 c43 0 50 3 50 20 0 17 -7 20 -50 20 l-50 0 0 65 0 65 60 0 c53 0
60 2 60 20 0 18 -7 20 -85 20 l-85 0 0 -190z"/>
<path d="M1352 508 c3 -20 8 -22 46 -20 l42 4 0 -171 0 -171 25 0 25 0 0 171
0 171 40 -4 c22 -2 40 0 40 3 0 4 3 14 6 23 5 14 -8 16 -111 16 -115 0 -116 0
-113 -22z"/>
<path d="M1620 341 l0 -191 25 0 c24 0 25 2 25 69 l0 68 45 5 c61 7 92 30 106
78 9 31 9 49 1 79 -16 53 -51 73 -134 79 l-68 5 0 -192z m131 130 c18 -14 24
-29 24 -59 0 -52 -26 -82 -72 -82 l-33 0 0 80 0 80 29 0 c16 0 39 -9 52 -19z"/>
<path d="M1880 341 l0 -191 25 0 c25 0 25 1 25 80 0 78 1 80 24 80 20 0 29
-12 57 -80 31 -72 37 -80 62 -80 15 0 27 2 27 5 0 3 -19 42 -41 87 -23 45 -37
84 -32 85 65 22 76 141 17 179 -14 10 -54 19 -94 22 l-70 5 0 -192z m128 133
c16 -11 22 -25 22 -51 0 -47 -24 -73 -67 -73 l-33 0 0 70 c0 70 0 70 28 70 15
0 38 -7 50 -16z"/>
<path d="M2150 340 l0 -190 25 0 25 0 0 190 0 190 -25 0 -25 0 0 -190z"/>
<path d="M2297 468 c-4 -35 -9 -108 -12 -163 -4 -55 -9 -112 -11 -127 -5 -24
-2 -28 19 -28 23 0 25 4 30 67 4 38 7 111 8 163 1 109 4 103 44 -72 24 -109
28 -118 49 -118 22 0 25 9 52 142 l29 141 6 -64 c4 -35 7 -108 8 -161 l1 -98
26 0 27 0 -7 95 c-3 52 -9 138 -12 190 l-7 95 -32 0 -32 0 -22 -107 c-12 -60
-26 -124 -30 -143 l-8 -35 -8 40 c-4 22 -17 85 -30 140 -21 99 -22 100 -52
103 l-31 3 -5 -63z"/>
<path d="M2640 340 l0 -190 90 0 c83 0 90 1 90 20 0 18 -7 20 -65 20 l-65 0 0
65 0 65 55 0 c48 0 55 2 55 20 0 18 -7 20 -55 20 l-55 0 0 65 0 65 59 0 c55 0
71 8 71 36 0 2 -40 4 -90 4 l-90 0 0 -190z"/>
</g>
</svg>
